<?xml version="1.0" encoding="UTF-8" standalone="no"?>
<svg width="24px" height="24px" viewBox="0 0 24 24" version="1.1" xmlns="http://www.w3.org/2000/svg" xmlns:xlink="http://www.w3.org/1999/xlink">
    <!-- Generator: Sketch 49 (51002) - http://www.bohemiancoding.com/sketch -->
    <title>Shape</title>
    <desc>Created with Sketch.</desc>
    <defs></defs>
    <g id="Page-1" stroke="none" stroke-width="1" fill="none" fill-rule="evenodd">
        <g id="search" fill="#BCBCBC" fill-rule="nonzero">
            <path d="M23.634,21.8471579 L17.8234286,15.9098947 C19.3174286,14.1650526 20.136,11.9696842 20.136,9.68421053 C20.136,4.34442105 15.714,0 10.2788571,0 C4.84371429,0 0.421714286,4.34442105 0.421714286,9.68421053 C0.421714286,15.024 4.84371429,19.3684211 10.2788571,19.3684211 C12.3192857,19.3684211 14.2637143,18.7637895 15.9261429,17.616 L21.7808571,23.5983158 C22.0255714,23.848 22.3547143,23.9856842 22.7074286,23.9856842 C23.0412857,23.9856842 23.358,23.8606316 23.5984286,23.6332632 C24.1092857,23.1503158 24.1255714,22.3494737 23.634,21.8471579 Z M10.2788571,2.52631579 C14.2962857,2.52631579 17.5645714,5.73726316 17.5645714,9.68421053 C17.5645714,13.6311579 14.2962857,16.8421053 10.2788571,16.8421053 C6.26142857,16.8421053 2.99314286,13.6311579 2.99314286,9.68421053 C2.99314286,5.73726316 6.26142857,2.52631579 10.2788571,2.52631579 Z" id="Shape"></path>
        </g>
    </g>
</svg>